<?xml version="1.0" encoding="UTF-8"?>
<svg width="17px" height="15px" viewBox="0 0 17 15" version="1.1" xmlns="http://www.w3.org/2000/svg" xmlns:xlink="http://www.w3.org/1999/xlink">
    <!-- Generator: Sketch 61.2 (89653) - https://sketch.com -->
    <title>crown copy 5</title>
    <desc>Created with Sketch.</desc>
    <g id="Page-1" stroke="none" stroke-width="1" fill="none" fill-rule="evenodd">
        <g id="blaze-crash-game-chat-open" transform="translate(-1135.000000, -584.000000)" fill-rule="nonzero">
            <g id="crown-copy-5" transform="translate(1135.000000, 584.000000)">
                <path d="M16.7982802,1.91003907 C16.6673445,1.84285466 16.5097474,1.86004467 16.3958573,1.95393364 L12.6225416,5.08808094 L8.7904699,0.135873084 C8.71787523,0.0496475649 8.61174431,0 8.50001586,0 C8.38828742,0 8.2821565,0.0496475649 8.20956183,0.135873084 L4.37749015,5.08808094 L0.604174443,1.95393364 C0.490521022,1.85909927 0.332286055,1.84174041 0.201301928,1.9097373 C0.0703178002,1.97773419 -0.00846225502,2.11813302 0.000724775446,2.2671983 L0.677342253,13.5901214 C0.725705493,14.3817421 1.37166033,14.9989474 2.15289309,15 L14.8471386,15 C15.6283714,14.9989474 16.2743262,14.3817421 16.3226895,13.5901214 L16.9993069,2.2671983 C17.0082898,2.11813581 16.9293356,1.97785994 16.7982802,1.91003907 Z" id="Path" fill="#FFD764"></path>
                <polygon id="Path" fill="#9B7217" points="15.955075 12 16 11 1 11 1.04492505 12"></polygon>
            </g>
        </g>
    </g>
</svg>