<svg width="259" height="133" viewBox="0 0 259 133" fill="none" xmlns="http://www.w3.org/2000/svg">
<g clip-path="url(#clip0_6_15)">
<path d="M84.949 91.0537L84.949 41.5837H72.689L72.689 91.0537H84.949Z" fill="#84539D" stroke="#82368C" stroke-width="3" stroke-miterlimit="10"/>
<path d="M72.6888 82.6039V50.0339H60.4288L60.4288 82.6039H72.6888Z" fill="#84539D" stroke="#82368C" stroke-width="3" stroke-miterlimit="10"/>
<path d="M258.19 66.32C258.19 66.32 224.87 33.1 195.48 33.1C166.09 33.1 81.81 33.1 81.81 33.1V66.32V99.54C81.81 99.54 166.08 99.54 195.48 99.54C224.88 99.54 258.19 66.32 258.19 66.32Z" fill="#82368C"/>
<path d="M253.51 66.32C253.51 66.32 221.7 36.99 193.63 36.99C165.56 36.99 85.09 36.99 85.09 36.99V66.32V95.65C85.09 95.65 165.56 95.65 193.63 95.65C221.7 95.65 253.51 66.32 253.51 66.32Z" fill="#DAD5D5"/>
<path d="M253.51 66.32C253.51 66.32 221.7 40.85 193.63 40.85C165.56 40.85 85.09 40.85 85.09 40.85V66.32V91.79C85.09 91.79 165.56 91.79 193.63 91.79C221.7 91.79 253.51 66.32 253.51 66.32Z" fill="#F3EAF5"/>
<path d="M197.91 85.42C208.459 85.42 217.01 76.8686 217.01 66.32C217.01 55.7714 208.459 47.22 197.91 47.22C187.361 47.22 178.81 55.7714 178.81 66.32C178.81 76.8686 187.361 85.42 197.91 85.42Z" fill="#82368C"/>
<path d="M197.91 82.24C206.702 82.24 213.83 75.1124 213.83 66.32C213.83 57.5276 206.702 50.4 197.91 50.4C189.118 50.4 181.99 57.5276 181.99 66.32C181.99 75.1124 189.118 82.24 197.91 82.24Z" fill="#536FAA"/>
<path d="M85.08 68.7V63.92C85.08 61.49 87.05 59.51 89.49 59.51H147.17C149.6 59.51 151.58 61.48 151.58 63.92V68.7C151.58 71.13 149.61 73.11 147.17 73.11H89.49C87.06 73.11 85.08 71.14 85.08 68.7Z" fill="#84539D" stroke="#82368C" stroke-width="3" stroke-miterlimit="10"/>
<path d="M158.48 33.09C158.48 33.09 150.06 1.5 129.94 1.5C109.82 1.5 84.09 1.5 84.09 1.5L107.25 33.09H158.48Z" fill="#84539D" stroke="#82368C" stroke-width="3" stroke-miterlimit="10"/>
<path d="M158.48 99.54C158.48 99.54 150.06 131.13 129.94 131.13C109.82 131.13 84.09 131.13 84.09 131.13L107.25 99.54H158.48V99.54Z" fill="#84539D" stroke="#82368C" stroke-width="3" stroke-miterlimit="10"/>
<path d="M52.73 66.32C52.73 66.32 45.75 46.96 35.65 49.99C25.55 53.02 2.96002 66.32 2.96002 66.32C2.96002 66.32 25.55 79.61 35.65 82.64C45.75 85.67 52.73 66.32 52.73 66.32Z" fill="#E94893" stroke="#82368C" stroke-width="3" stroke-miterlimit="10"/>
</g>
<defs>
<clipPath id="clip0_6_15">
<rect width="258.19" height="132.63" fill="white"/>
</clipPath>
</defs>
</svg>
