<?xml version="1.0" encoding="utf-8"?>
<!-- Generator: Adobe Illustrator 25.2.1, SVG Export Plug-In . SVG Version: 6.00 Build 0)  -->
<svg version="1.1" id="Camada_1" xmlns="http://www.w3.org/2000/svg" xmlns:xlink="http://www.w3.org/1999/xlink" x="0px" y="0px"
	 viewBox="0 0 259 96.9" style="enable-background:new 0 0 259 96.9;" xml:space="preserve">
<style type="text/css">
	.st0{fill:#E22E1E;}
	.st1{fill:#EFB517;}
	.st2{fill:#FCE3B7;}
	.st3{fill:#DDC79F;}
	.st4{fill:#5E422B;}
	.st5{fill:#BE271A;}
	.st6{fill:#DEC663;}
	.st7{fill:#D52116;}
	.st8{fill:#BD2318;}
	.st9{fill:#563C26;}
	.st10{fill:#EA5E1B;}
	.st11{fill:#5B4029;}
	.st12{fill:#FBE36E;}
	.st13{fill:#DEC761;}
</style>
<g>
	<path class="st0" d="M64.8,9.3c2.1,2.1,2.6,5.2,1.2,7.8c-1.4,2.5-4.3,3.9-7,3.2c-4.2-1.1-7.7-3.6-11.3-5.8
		c-0.7-0.4-0.4-0.8,0.1-1.1c3.3-2.2,6.7-4.3,10.5-5.6C60.8,6.9,63,7.5,64.8,9.3z M62.2,11.8c-0.6-0.4-1.2-0.8-1.9-0.7
		c-2,0.3-3.7,1.4-5.4,2.3c-0.5,0.3-0.5,0.7,0.1,1c1.6,0.9,3.2,1.8,4.9,2.2c1.3,0.3,2.3-0.3,2.9-1.4C63.3,14,63.1,12.8,62.2,11.8z"/>
	<path class="st1" d="M62.2,11.8c0.9,1,1.2,2.1,0.6,3.3c-0.6,1.1-1.6,1.7-2.9,1.4c-1.8-0.4-3.4-1.3-4.9-2.2c-0.5-0.3-0.6-0.7-0.1-1
		c1.7-1,3.4-2,5.4-2.3C61,11,61.6,11.4,62.2,11.8z"/>
	<path class="st0" d="M66.8,78.1c2.1,2.1,2.6,5.2,1.2,7.8c-1.4,2.5-4.3,3.9-7,3.2c-4.2-1.1-7.7-3.6-11.3-5.8
		c-0.7-0.4-0.4-0.8,0.1-1.1c3.3-2.2,6.7-4.3,10.5-5.6C62.7,75.7,65,76.4,66.8,78.1z M64.1,80.7c-0.6-0.4-1.2-0.8-1.9-0.7
		c-2,0.3-3.7,1.4-5.4,2.3c-0.5,0.3-0.5,0.7,0.1,1c1.6,0.9,3.2,1.8,4.9,2.2c1.3,0.3,2.3-0.3,2.9-1.4C65.3,82.8,65,81.7,64.1,80.7z"/>
	<path class="st1" d="M64.1,80.7c0.9,1,1.2,2.1,0.6,3.3c-0.6,1.1-1.6,1.7-2.9,1.4c-1.8-0.4-3.4-1.3-4.9-2.2c-0.5-0.3-0.6-0.7-0.1-1
		c1.7-1,3.4-2,5.4-2.3C62.9,79.9,63.5,80.3,64.1,80.7z"/>
	<path class="st0" d="M34.8,38.7C39,42.8,39.9,49,37.1,54c-2.8,5-8.5,7.7-13.9,6.3C15,58.1,8,53.2,0.9,48.8
		c-1.3-0.8-0.8-1.5,0.2-2.2c6.6-4.3,13.2-8.5,20.7-11.1C26.8,33.9,31.2,35.1,34.8,38.7z M29.5,43.7c-1.1-0.9-2.3-1.7-3.8-1.4
		c-4,0.6-7.3,2.7-10.7,4.6c-1,0.6-0.9,1.3,0.2,1.9c3.1,1.7,6.3,3.5,9.8,4.3c2.5,0.6,4.5-0.5,5.7-2.8C31.9,47.9,31.3,45.7,29.5,43.7z
		"/>
	<path class="st1" d="M29.5,43.7c1.8,2,2.3,4.2,1.1,6.6c-1.2,2.3-3.2,3.4-5.7,2.8c-3.5-0.8-6.7-2.6-9.8-4.3
		c-1.1-0.6-1.2-1.4-0.2-1.9c3.4-1.9,6.7-4,10.7-4.6C27.2,42,28.4,42.8,29.5,43.7z"/>
	<g>
		<path class="st2" d="M172.4,3.2H78.8h-2.2H74v0c-1.3,0-2.3,1.1-2.3,2.3v20.1c0,1.3,1,2.3,2.3,2.3v0h2.5h2.2h93.6
			c14.7-1.8,22.9-12.4,22.9-12.4S187,5,172.4,3.2z"/>
		<path class="st3" d="M71.7,25.6c0,1.3,1,2.3,2.3,2.3v0h2.5h2.2h93.6c14.7-1.8,22.9-12.4,22.9-12.4H71.7V25.6z"/>
	</g>
	<rect x="87.4" y="3.2" class="st4" width="6.8" height="24.8"/>
	<rect x="132.6" y="3.2" class="st4" width="6.8" height="24.8"/>
	<rect x="145.9" y="3.2" class="st4" width="6.8" height="24.8"/>
	<path class="st4" d="M76.5,3.2H74v0c-1.3,0-2.3,1.1-2.3,2.3v10v10c0,1.3,1,2.3,2.3,2.3v0h2.5h0.1L76.5,3.2L76.5,3.2z"/>
	<g>
		<path class="st2" d="M172.4,69.6H78.8h-2.2H74v0c-1.3,0-2.3,1.1-2.3,2.3v20.1c0,1.3,1,2.3,2.3,2.3v0h2.5h2.2h93.6
			C187,92.6,195.3,82,195.3,82S187,71.5,172.4,69.6z"/>
		<path class="st3" d="M71.7,92.1c0,1.3,1,2.3,2.3,2.3v0h2.5h2.2h93.6C187,92.6,195.3,82,195.3,82H71.7V92.1z"/>
	</g>
	<rect x="87.4" y="69.6" class="st4" width="6.8" height="24.8"/>
	<rect x="132.6" y="69.6" class="st4" width="6.8" height="24.8"/>
	<rect x="145.9" y="69.6" class="st4" width="6.8" height="24.8"/>
	<path class="st4" d="M76.5,69.6H74v0c-1.3,0-2.3,1.1-2.3,2.3v10v10c0,1.3,1,2.3,2.3,2.3v0h2.5h0.1L76.5,69.6L76.5,69.6z"/>
	<path class="st5" d="M46.4,38.1h-0.1c-1.7,0-3,1.4-3,3v15.3c0,1.7,1.4,3,3,3h0.1c1.7,0,3-1.4,3-3V41.2
		C49.4,39.5,48.1,38.1,46.4,38.1z"/>
	<path class="st6" d="M51.2,28L51.2,28c-2.2,0.1-3.9,1.8-3.9,3.9v33.8c0,2.1,1.7,3.9,3.9,3.9v0h8V28H51.2z"/>
	<g>
		<path class="st7" d="M220.5,28H59.2v41.7h161.3c24.7-3.1,38.5-20.8,38.5-20.8S245.1,31,220.5,28z"/>
		<path class="st8" d="M59.2,69.6h161.3c24.7-3.1,38.5-20.8,38.5-20.8H59.2V69.6z"/>
	</g>
	<g>
		<path class="st2" d="M192,32.7H97v32.7h95C206.5,63,214.7,49,214.7,49S206.5,35.1,192,32.7z"/>
		<path class="st3" d="M97,65.4h95C206.5,63,214.7,49,214.7,49H97V65.4z"/>
	</g>
	<path class="st9" d="M173.8,42c-0.4,0-0.8,0-1.2,0.1c3.3,0.6,5.8,3.4,5.8,6.9c0,3.4-2.5,6.3-5.8,6.9c0.4,0.1,0.8,0.1,1.2,0.1
		c3.9,0,7-3.1,7-7S177.7,42,173.8,42z"/>
	<path class="st10" d="M203.9,37.7c-3,2.8-4.9,6.9-4.9,11.3c0,4.5,1.9,8.5,4.9,11.3c7-4.9,10.7-11.3,10.7-11.3
		S210.9,42.6,203.9,37.7z"/>
	<rect x="128" y="32.4" class="st4" width="2.3" height="32.7"/>
	<rect x="90.8" y="37" class="st11" width="6.1" height="8.9"/>
	<rect x="90.8" y="49.5" class="st11" width="6.1" height="8.9"/>
	<rect x="71.7" y="28" class="st1" width="2.3" height="41.7"/>
	<rect x="152.7" y="32.4" class="st4" width="2.3" height="32.7"/>
	<path class="st12" d="M133.5,43h-25.3L97,32.7v32.7l11.1-11.1h25.4c1.7,0,3.1-1.4,3.1-3.1v-5.1C136.5,44.4,135.2,43,133.5,43z"/>
	<path class="st13" d="M97,49v16.4l11.1-11.1h25.4c1.7,0,3.1-1.4,3.1-3.1V49H97z"/>
	<path class="st10" d="M97,1.2v31.5h67.3v-2.6c0-3.7-3-6.7-6.7-6.7h-30c-2.8,0-5-2.2-5-5v0c0-9.5-7.7-17.2-17.2-17.2H97z"/>
	<path class="st12" d="M97,1.2v22.1c0.5,0.3,1,0.4,1.6,0.4h0c1.8,0,3.3-1.5,3.3-3.3V1.2H97z"/>
	<path class="st10" d="M97,96.9V65.4h67.3v2.6c0,3.7-3,6.7-6.7,6.7h-30c-2.8,0-5,2.2-5,5v0c0,9.5-7.7,17.2-17.2,17.2H97z"/>
	<path class="st12" d="M97,96.9V74.8c0.5-0.3,1-0.4,1.6-0.4h0c1.8,0,3.3,1.5,3.3,3.3v19.2H97z"/>
</g>
</svg>
