<?xml version="1.0" encoding="utf-8"?>
<!-- Generator: Adobe Illustrator 23.0.1, SVG Export Plug-In . SVG Version: 6.00 Build 0)  -->
<svg version="1.1" id="Camada_1" xmlns="http://www.w3.org/2000/svg" xmlns:xlink="http://www.w3.org/1999/xlink" x="0px" y="0px"
	 viewBox="0 0 200 200" style="enable-background:new 0 0 200 200;" xml:space="preserve">
<style type="text/css">
	.st0{fill:#93B624;}
	.st1{fill:#729922;}
</style>
<rect class="st0" width="200" height="200"/>
<g>
	<path class="st1" d="M94,96c-6-12-30-6-41,6c11.58,0.17,19.83,5.72,27,7c11.81,2.11,15.86-0.76,18-3c-6-6-9.75-8.18-19-10
		C83.93,93.78,90,97,94,96z"/>
	<path class="st1" d="M109,63c-5.52,1.66-12.29,5.94-15,16c-2.61,9.69,0.89,16.06,5,18c-0.05-7.94,4-18,4-18s2.22,17.97,6,18
		C114.27,98.49,114.51,87.75,109,63z"/>
	<path class="st1" d="M116,108c-0.74-3.06-6.92-5.11-14-7c12.39-3.94,22.01-0.31,27,16c-15.25,1.92-25.35-0.7-29-9
		C101.25,105.86,105.84,105.46,116,108z"/>
</g>
</svg>
